<svg width="45" height="45" fill="none" xmlns="http://www.w3.org/2000/svg"><path fill-rule="evenodd" clip-rule="evenodd" d="M22.5 43C33.8218 43 43 33.8218 43 22.5S33.8218 2 22.5 2 2 11.1782 2 22.5 11.1782 43 22.5 43Zm0 2C34.9264 45 45 34.9264 45 22.5S34.9264 0 22.5 0 0 10.0736 0 22.5 10.0736 45 22.5 45Z" fill="#F13C6E"/><path d="M26.9993 13.0042 24.4058 13c-2.9137 0-4.7967 1.9319-4.7967 4.922v2.2694h-2.6077c-.2253 0-.4078.1827-.4078.408v3.2881c0 .2253.1827.4078.4078.4078h2.6077v8.2969c0 .2253.1824.4078.4078.4078h3.4023c.2253 0 .4078-.1827.4078-.4078v-8.2969h3.0489c.2254 0 .4078-.1825.4078-.4078l.0013-3.2881c0-.1082-.0431-.2118-.1194-.2884-.0764-.0765-.1804-.1196-.2886-.1196h-3.05v-1.9238c0-.9246.2203-1.394 1.4248-1.394l1.7471-.0006c.2251 0 .4076-.1827.4076-.4079V13.412c0-.2249-.1823-.4074-.4072-.4078Z" fill="#F13C6E"/></svg>