<svg width="45" height="45" fill="none" xmlns="http://www.w3.org/2000/svg"><path fill-rule="evenodd" clip-rule="evenodd" d="M22.5 43C33.8218 43 43 33.8218 43 22.5S33.8218 2 22.5 2 2 11.1782 2 22.5 11.1782 43 22.5 43Zm0 2C34.9264 45 45 34.9264 45 22.5S34.9264 0 22.5 0 0 10.0736 0 22.5 10.0736 45 22.5 45Z" fill="#F13C6E"/><path d="M26.125 12h-8.25C14.0786 12 11 15.0786 11 18.875v8.25C11 30.9214 14.0786 34 17.875 34h8.25C29.9214 34 33 30.9214 33 27.125v-8.25C33 15.0786 29.9214 12 26.125 12Zm4.8125 15.125c0 2.6537-2.1588 4.8125-4.8125 4.8125h-8.25c-2.6537 0-4.8125-2.1588-4.8125-4.8125v-8.25c0-2.6537 2.1588-4.8125 4.8125-4.8125h8.25c2.6537 0 4.8125 2.1588 4.8125 4.8125v8.25Z" fill="#F13C6E"/><path d="M22 17.5c-3.0374 0-5.5 2.4626-5.5 5.5s2.4626 5.5 5.5 5.5 5.5-2.4626 5.5-5.5-2.4626-5.5-5.5-5.5Zm0 8.9375c-1.8948 0-3.4375-1.5427-3.4375-3.4375 0-1.8961 1.5427-3.4375 3.4375-3.4375S25.4375 21.1039 25.4375 23c0 1.8948-1.5427 3.4375-3.4375 3.4375ZM27.9125 17.8204c.4048 0 .7329-.3282.7329-.7329 0-.4048-.3281-.7329-.7329-.7329s-.7329.3281-.7329.7329c0 .4047.3281.7329.7329.7329Z" fill="#F13C6E"/></svg>