<svg width="46" height="45" fill="none" xmlns="http://www.w3.org/2000/svg"><path fill-rule="evenodd" clip-rule="evenodd" d="M23 43c11.3218 0 20.5-9.1782 20.5-20.5S34.3218 2 23 2 2.5 11.1782 2.5 22.5 11.6782 43 23 43Zm0 2c12.4264 0 22.5-10.0736 22.5-22.5S35.4264 0 23 0 .5 10.0736.5 22.5 10.5736 45 23 45Z" fill="#F13C6E"/><path d="M29.0749 15h-12.968C13.5626 15 11.5 17.1025 11.5 19.696v6.608c0 2.5935 2.0626 4.696 4.6069 4.696h12.968c2.5443 0 4.6069-2.1025 4.6069-4.696v-6.608c0-2.5935-2.0626-4.696-4.6069-4.696Zm-3.1156 8.3215-6.0655 2.9489c-.1617.0785-.3484-.0416-.3484-.2241v-6.082c0-.1851.1916-.3051.3536-.2214l6.0656 3.1332c.1803.0931.1772.3567-.0053.4454Z" fill="#F13C6E"/></svg>